<svg xmlns="http://www.w3.org/2000/svg" xmlns:xlink="http://www.w3.org/1999/xlink" viewBox="0 0 199 199"><defs><style>.a{fill:none;}.b{fill:#fff;}.c{fill:#dc3545;}.d{fill:#007bff;}.e{clip-path:url(#a);}</style><clipPath id="a"><rect class="a" x="31.9" y="100.65" width="17.44" height="17.44"/></clipPath></defs><title>favicon</title><rect class="b" x="0.48" y="0.21" width="199" height="199" rx="51.41"/><path class="c" d="M21.51,88.24H31.87Q33.89,108,55.49,108q11.23,0,17.06-4.75t5.84-13.83q0-8.2-4.61-12.38t-14-5.76L48.58,69.38Q36.47,67.36,30,61.1T23.52,43.46q0-13.11,8.79-20.45t23.18-7.34q13.24,0,21.67,6.84t10,20.8H76.8Q75.08,24.74,55.35,24.74q-10.23,0-15.92,4.82T33.75,42.74q0,7.34,4.39,11.45t13.32,5.68l11.52,2q12.52,2.16,19.15,8.64t6.62,18.29q0,13.53-9.07,21t-24.91,7.41q-15,0-23.47-7.34T21.51,88.24Z"/><path class="c" d="M117.41,72.69v43.63H106.9V17h36.86q14,0,22,7.27t8,20.67q0,10.65-5.61,17.57t-15.7,9.21l23.47,44.64H163.78L141.31,72.69Zm25.49-9.07q9.65,0,15-4.83T163.2,45q0-9.21-5.26-13.89t-15-4.68H117.41V63.62Z"/><path class="d" d="M33.25,149.3V123.53q0-19.73,9.51-28.87t25.48-9.15A40.2,40.2,0,0,1,86,89.26,27.66,27.66,0,0,1,97.91,99.91a30.35,30.35,0,0,1,4.17,16v.43H91.57v-.43q0-9.65-6.26-15.27T68.24,95Q56.3,95,50,101.79T43.76,124v25.92q0,27.8,24.63,27.79,10.8,0,17-5.54t6.19-15.19v-.58h10.22v.58q0,14-9.07,22.17t-24.48,8.21q-16,0-25.48-9.14T33.25,149.3Z"/><path class="d" d="M133.62,131.16h42.62v9.51H133.62v45.5H123.11V86.81h60.33v9.5H133.62Z"/><g class="e"><path class="c" d="M21.51,88.24H31.87Q33.89,108,55.49,108q11.23,0,17.06-4.75t5.84-13.83q0-8.2-4.61-12.38t-14-5.76L48.58,69.38Q36.47,67.36,30,61.1T23.52,43.46q0-13.11,8.79-20.45t23.18-7.34q13.24,0,21.67,6.84t10,20.8H76.8Q75.08,24.74,55.35,24.74q-10.23,0-15.92,4.82T33.75,42.74q0,7.34,4.39,11.45t13.32,5.68l11.52,2q12.52,2.16,19.15,8.64t6.62,18.29q0,13.53-9.07,21t-24.91,7.41q-15,0-23.47-7.34T21.51,88.24Z"/><path class="c" d="M117.41,72.69v43.63H106.9V17h36.86q14,0,22,7.27t8,20.67q0,10.65-5.61,17.57t-15.7,9.21l23.47,44.64H163.78L141.31,72.69Zm25.49-9.07q9.65,0,15-4.83T163.2,45q0-9.21-5.26-13.89t-15-4.68H117.41V63.62Z"/></g></svg>