<svg xmlns="http://www.w3.org/2000/svg" viewBox="0 0 126.529 87.53"><path d="M95.65,83.139c-.73-1.095-3.239-1.693-5.476-1.916-2.5-.487-3.1.213-7-1.126-1.364-.469-8.214-7.911-9.309-10.1-.73-1.461-1.119-4.617.67-5.963,5.415-4.077,7.727-6.572,13.081-11.805,3.436-2.734,6.387-4.854,8.762-8.244,2.628-3.75,4.312-9.294,6.572-13.143a43.582,43.582,0,0,0,3.863-8.7c1.582-4.259,1-5.82,2.556-7.18a57.269,57.269,0,0,1,5.963-3.772c2.239-1.28,9.248-1.339,11.195-1.7-.973-2.8-5.719-4.259-7.544-4.99a27.22,27.22,0,0,0-9.492-1.7c-1.917-1.278-1.917-.941-4.838-2.4-4.381-1.46-9.574,1.478-12.9,4.138-3.651,2.921-3.835,8.176-7.788,9.735-13.265,5.233-16.429,8.4-25.556,15.577-4.107,3.231-11.275,4.254-14.846,6.572C28.942,45.9,20.444,50.769,4.868,55.15,3.423,56.032,3.012,57.036,0,58.8c5.111.517,13.919-2.221,15.942-2.312C14.329,57.63,4.016,62.513,1.947,64.4c2.114-.152,10.785-3.666,13.63-4.016C13.1,62.376,2.784,67.3,1.034,68.962a14.484,14.484,0,0,0,3.1.791c-.486.852-1.536,1.156-1.947,2.13,4.26-.183,7.256-1.8,8.276-1.765a32.146,32.146,0,0,0-1.887,2.8c7.886-2.867,15.151-7.119,22.939-10.1,3.664-.86,6.45-.609,10.344-1.7,3.838-1.079,8.519-2.677,12.534-1.339,3.346,1.116,6.3,4.808,9.371,7.789a4.9,4.9,0,0,1,2.312,1.095c1.478,1.182,1.578,9.742,1.551,9.827-1,3.194-13.68.7-12.493,3.072,1.369-.365,3.407-.912,4.016.365.314.66-2.13.427-2.008,1.278,1.46,0,2.13-.669,4.989-1.034a60.842,60.842,0,0,1,7.241-.061c2.5.243,9.309.456,12.23,1.095h.182c-.73-1.095-3.238-1.693-5.476-1.917-2.5-.486-2.87.639-6.49-1.43-.571-.326.193-8.315-.7-10.1,0-.73.974-.487,1.7-.487,1.478,1.182,7.881,9.226,7.91,9.31.852,2.494-10.922.547-9.736,2.92,1.461,0,3.408-.912,4.016.365.314.66-2.129.426-2.008,1.278,1.461,0,3.773-.669,6.633-1.034a36.465,36.465,0,0,1,5.6-.061c2.5.244,9.31.456,12.23,1.095"/><rect y="81.717" width="126.529" height="5.814"/><rect x="55.143" y="81.017" width="4.719" height="1.202"/></svg>