<?xml version="1.0" encoding="UTF-8" standalone="no"?>
<svg
   xmlns:dc="http://purl.org/dc/elements/1.1/"
   xmlns:cc="http://creativecommons.org/ns#"
   xmlns:rdf="http://www.w3.org/1999/02/22-rdf-syntax-ns#"
   xmlns:svg="http://www.w3.org/2000/svg"
   xmlns="http://www.w3.org/2000/svg"
   xmlns:sodipodi="http://sodipodi.sourceforge.net/DTD/sodipodi-0.dtd"
   xmlns:inkscape="http://www.inkscape.org/namespaces/inkscape"
   viewBox="0 0 126.529 87.53"
   version="1.1"
   id="svg8"
   sodipodi:docname="raven_white.svg"
   inkscape:version="1.0.1 (3bc2e813f5, 2020-09-07)">
  <metadata
     id="metadata14">
    <rdf:RDF>
      <cc:Work
         rdf:about="">
        <dc:format>image/svg+xml</dc:format>
        <dc:type
           rdf:resource="http://purl.org/dc/dcmitype/StillImage" />
      </cc:Work>
    </rdf:RDF>
  </metadata>
  <defs
     id="defs12" />
  <sodipodi:namedview
     pagecolor="#ffffff"
     bordercolor="#666666"
     borderopacity="1"
     objecttolerance="10"
     gridtolerance="10"
     guidetolerance="10"
     inkscape:pageopacity="0"
     inkscape:pageshadow="2"
     inkscape:window-width="1824"
     inkscape:window-height="1152"
     id="namedview10"
     showgrid="false"
     inkscape:zoom="8.3971211"
     inkscape:cx="63.2645"
     inkscape:cy="43.764999"
     inkscape:window-x="0"
     inkscape:window-y="0"
     inkscape:window-maximized="1"
     inkscape:current-layer="svg8" />
  <path
     d="m 95.65,83.139 c -0.73,-1.095 -3.239,-1.693 -5.476,-1.916 -2.5,-0.487 -3.1,0.213 -7,-1.126 -1.364,-0.469 -8.214,-7.911 -9.309,-10.1 -0.73,-1.461 -1.119,-4.617 0.67,-5.963 5.415,-4.077 7.727,-6.572 13.081,-11.805 3.436,-2.734 6.387001,-4.854 8.762,-8.244 2.628,-3.75 4.312,-9.294 6.572,-13.143 a 43.582,43.582 0 0 0 3.863,-8.7 c 1.582,-4.259 1,-5.82 2.556,-7.18 a 57.269,57.269 0 0 1 5.963,-3.772 c 2.239,-1.28 9.248,-1.339 11.195,-1.7 -0.973,-2.8 -5.719,-4.259 -7.544,-4.99 a 27.22,27.22 0 0 0 -9.492,-1.7 c -1.917,-1.278 -1.917,-0.941 -4.838,-2.4 -4.381,-1.46 -9.574,1.478 -12.9,4.138 -3.651,2.921 -3.835,8.176 -7.788,9.735 C 70.7,19.506 67.536,22.673 58.408999,29.85 54.302,33.081 47.134,34.104 43.562999,36.422 28.942,45.9 20.444,50.769 4.8680001,55.15 3.423,56.032 3.012,57.036 0,58.8 5.111,59.317 13.919,56.579 15.942,56.488 14.329001,57.63 4.016,62.513 1.947,64.4 4.061,64.248 12.732,60.734 15.577,60.384 13.1,62.376 2.784,67.3 1.034,68.962 a 14.484,14.484 0 0 0 3.1,0.791 c -0.486,0.852 -1.536,1.156 -1.947,2.13 4.2599999,-0.183 7.256,-1.8 8.276,-1.765 a 32.146,32.146 0 0 0 -1.8869999,2.8 C 16.462,70.051 23.727,65.799 31.515,62.818 c 3.664,-0.86 6.45,-0.609 10.344,-1.7 3.838,-1.079 8.519,-2.677 12.533999,-1.339 C 57.739,60.895 60.693,64.587 63.764,67.568 a 4.9,4.9 0 0 1 2.312,1.095 c 1.478,1.182 1.578,9.742 1.551,9.827 -1,3.194 -13.680001,0.7 -12.493,3.072 1.369,-0.365 3.407,-0.912 4.016,0.365 0.314,0.66 -2.13,0.427 -2.008,1.278 1.46,0 2.13,-0.669 4.989,-1.034 a 60.842,60.842 0 0 1 7.241,-0.061 c 2.5,0.243 9.309,0.456 12.229999,1.095 H 81.784 c -0.73,-1.095 -3.238,-1.693 -5.476,-1.917 -2.5,-0.486 -2.87,0.639 -6.49,-1.43 -0.571,-0.326 0.193,-8.315 -0.7,-10.1 0,-0.73 0.974,-0.487 1.7,-0.487 1.478001,1.182 7.880999,9.226 7.909999,9.31 0.852002,2.494 -10.921999,0.547 -9.735999,2.92 1.460999,0 3.407999,-0.912 4.016,0.365 0.314,0.66 -2.129001,0.426 -2.008,1.278 1.460999,0 3.772999,-0.669 6.633001,-1.034 A 36.465,36.465 0 0 1 83.233,82.049 c 2.5,0.244 9.31,0.456 12.229999,1.095"
     id="path2"
     style="stroke-width:1;fill:#ffffff" />
  <rect
     y="81.717003"
     width="126.529"
     height="5.8140001"
     id="rect4"
     x="0"
     style="fill:#ffffff" />
  <rect
     x="55.143"
     y="81.017"
     width="4.719"
     height="1.202"
     id="rect6"
     style="fill:#ffffff" />
</svg>
